 <svg  version="1.0" xmlns="http://www.w3.org/2000/svg"  width="300.000000pt" height="158.000000pt" viewBox="0 0 300.000000 158.000000"  preserveAspectRatio="xMidYMid meet">  <g transform="translate(0.000000,158.000000) scale(0.100000,-0.100000)" fill="#000000" stroke="none"> <path d="M615 1071 c-261 -64 -299 -420 -57 -538 145 -71 325 2 382 154 11 30 20 58 20 63 0 6 -25 10 -55 10 -54 0 -55 0 -55 30 0 30 0 30 56 30 l56 0 -7 33 c-32 150 -194 253 -340 218z m170 -50 c49 -23 76 -46 104 -91 29 -48 28 -80 -2 -80 -38 0 -70 -34 -65 -69 4 -25 2 -28 -9 -20 -14 12 -28 5 -66 -34 -14 -13 -30 -17 -60 -15 -37 3 -44 7 -59 38 -9 19 -13 38 -10 42 4 4 38 12 76 18 80 13 102 23 111 50 10 32 -33 97 -80 120 -38 18 -45 19 -93 6 -61 -16 -97 -45 -123 -101 -50 -109 9 -257 113 -283 95 -23 167 12 204 100 15 34 18 37 47 31 18 -3 35 -8 39 -12 14 -12 -33 -91 -74 -124 -54 -43 -96 -57 -167 -57 -139 1 -241 106 -241 248 0 132 75 225 205 256 32 7 107 -4 150 -23z m-37 -97 c53 -55 45 -69 -45 -83 -120 -19 -123 -20 -123 -48 0 -54 60 -123 107 -123 36 0 81 27 97 58 12 23 16 24 21 10 4 -9 -1 -30 -10 -45 -55 -92 -182 -95 -242 -5 -26 39 -38 107 -29 157 14 72 97 131 166 118 14 -3 40 -20 58 -39z"/> <path d="M625 928 c-27 -16 -44 -39 -45 -61 0 -16 6 -17 48 -12 92 13 104 26 56 64 -31 24 -32 24 -59 9z"/> <path d="M1120 1062 c-19 -9 -45 -33 -58 -52 -20 -29 -23 -45 -20 -93 4 -49 9 -62 38 -92 19 -19 59 -44 89 -55 75 -29 108 -54 121 -96 31 -93 -51 -169 -143 -130 -43 18 -77 68 -77 114 0 20 -5 32 -14 32 -10 0 -15 -21 -19 -77 -2 -43 -3 -80 -1 -82 2 -2 10 2 18 9 12 10 21 8 44 -9 95 -68 230 -11 247 104 16 105 -18 159 -128 201 -90 35 -127 69 -127 119 0 50 44 95 93 95 44 0 91 -37 109 -85 12 -35 44 -51 34 -17 -3 9 -8 43 -12 75 -5 47 -9 55 -20 46 -10 -8 -22 -8 -45 0 -46 16 -89 14 -129 -7z"/> <path d="M1504 840 c-32 -13 -72 -66 -85 -112 -13 -51 -5 -113 21 -155 55 -91 178 -90 230 0 22 38 7 42 -28 7 -71 -70 -172 -12 -172 100 l0 40 99 0 c55 0 102 3 104 8 10 17 -15 72 -44 96 -32 27 -82 34 -125 16z m92 -45 c26 -39 15 -49 -59 -50 -37 -1 -67 0 -67 2 0 13 32 62 42 66 33 14 68 6 84 -18z"/> <path d="M2305 830 c-44 -22 -79 -69 -69 -94 14 -35 54 -9 54 36 0 29 23 48 59 48 32 0 51 -27 51 -74 0 -42 0 -43 -61 -72 -34 -16 -70 -40 -80 -53 -42 -53 -7 -129 55 -117 17 3 44 16 59 27 l28 20 20 -25 c25 -31 38 -32 73 -5 35 27 33 40 -6 37 l-33 -3 -5 133 c-4 117 -7 135 -24 148 -28 20 -74 17 -121 -6z m93 -201 c-2 -43 -8 -55 -31 -73 -35 -26 -61 -13 -65 32 -3 27 3 35 39 62 23 16 46 30 51 30 5 0 8 -23 6 -51z"/> <path d="M2560 824 c0 -21 5 -31 15 -31 19 0 19 16 0 41 -14 19 -15 18 -15 -10z"/> <path d="M1690 826 c0 -8 10 -16 23 -18 19 -3 30 -25 76 -156 30 -84 59 -151 64 -149 5 1 31 57 58 122 35 87 50 114 54 100 36 -119 73 -219 81 -222 6 -2 28 43 49 99 63 172 81 208 104 208 12 0 21 7 21 15 0 12 -13 15 -60 15 -47 0 -60 -3 -60 -15 0 -8 7 -15 15 -15 8 0 15 -6 15 -12 0 -27 -69 -202 -73 -188 -30 92 -55 185 -51 192 3 4 12 8 20 8 8 0 14 6 14 13 0 9 -20 13 -70 13 -49 1 -70 -3 -70 -11 0 -7 9 -15 20 -18 11 -3 20 -13 20 -22 0 -14 -66 -192 -75 -203 -1 -1 -14 42 -28 97 -15 54 -30 106 -33 115 -4 11 -1 16 10 16 9 0 16 7 16 15 0 12 -14 15 -70 15 -54 0 -70 -3 -70 -14z"/> </g> </svg> 