 <svg version="1.0" xmlns="http://www.w3.org/2000/svg"  width="300.000000pt" height="115.000000pt" viewBox="0 0 300.000000 115.000000"  preserveAspectRatio="xMidYMid meet">  <g transform="translate(0.000000,115.000000) scale(0.100000,-0.100000)" fill="#000000" stroke="none"> <path d="M217 1122 c-16 -17 -14 -45 23 -397 22 -209 43 -388 46 -400 4 -11 15 -32 26 -48 23 -33 394 -256 444 -267 56 -13 94 3 286 116 195 115 222 134 244 175 8 16 30 183 53 410 37 346 39 385 26 406 l-15 23 -559 0 c-526 0 -559 -1 -574 -18z m1110 -20 c15 -19 14 -42 -11 -277 -8 -77 -17 -165 -20 -195 -11 -112 -26 -246 -31 -278 -9 -48 -47 -81 -188 -163 -67 -39 -159 -96 -204 -125 l-82 -54 -90 60 c-50 33 -93 60 -95 60 -13 0 -235 138 -257 160 -30 29 -39 76 -59 285 -13 140 -25 259 -41 401 -12 115 -6 141 38 146 16 2 253 2 527 0 459 -2 500 -4 513 -20z"/> <path d="M555 1018 c-56 -32 -55 -26 -55 -362 1 -229 4 -315 13 -327 45 -58 120 -61 160 -5 16 23 23 48 25 103 4 65 7 74 38 104 28 27 36 30 49 19 8 -7 15 -16 15 -21 0 -15 141 -208 167 -229 40 -31 80 -26 119 16 56 59 53 69 -89 280 l-79 116 35 37 c106 108 126 132 132 160 8 37 -10 77 -47 104 -49 37 -85 19 -209 -101 -61 -59 -114 -108 -118 -110 -12 -4 -19 36 -15 78 5 59 -13 109 -49 130 -36 22 -63 25 -92 8z m83 -38 c20 -19 22 -30 22 -150 0 -72 1 -130 3 -130 1 0 70 68 153 150 161 161 175 169 219 125 41 -40 33 -60 -69 -164 l-94 -96 99 -145 c55 -80 104 -155 109 -167 12 -29 -2 -68 -30 -83 -45 -24 -66 -6 -171 151 l-101 151 -59 -58 -59 -58 0 -77 c0 -72 -2 -79 -26 -98 -33 -26 -45 -26 -78 0 l-26 20 0 302 c0 295 0 301 22 324 27 28 57 29 86 3z"/> <path d="M1420 975 l0 -25 745 0 c732 0 745 0 765 -20 19 -19 20 -33 20 -275 0 -242 -1 -256 -20 -275 -20 -20 -33 -20 -795 -20 -464 0 -775 -4 -775 -9 0 -5 -3 -16 -6 -25 -6 -15 67 -16 777 -16 759 0 785 1 816 20 47 28 53 65 53 325 0 260 -6 297 -53 325 -31 19 -57 20 -779 20 l-748 0 0 -25z"/> <path d="M43 953 c-41 -4 -51 -11 -36 -27 4 -4 8 -43 10 -88 2 -74 21 -269 28 -276 7 -7 160 14 160 23 0 6 -9 92 -19 193 l-19 182 -41 -2 c-23 -1 -60 -3 -83 -5z m93 -34 c8 -13 33 -222 34 -281 l0 -36 -50 -4 c-49 -3 -50 -2 -55 27 -7 45 -14 108 -20 183 -4 37 -8 77 -11 89 -4 23 3 27 63 31 17 1 35 -3 39 -9z"/> <path d="M1520 811 c0 -12 7 -21 15 -21 14 0 16 -20 13 -155 l-3 -155 27 0 c26 0 26 0 21 61 -6 59 -5 61 18 57 16 -2 32 -19 54 -58 26 -47 35 -55 63 -58 27 -3 32 0 32 17 0 12 -7 21 -15 21 -8 0 -24 18 -35 39 -11 22 -25 43 -31 46 -7 5 -4 14 8 29 11 11 31 38 47 59 l27 37 -29 0 c-22 0 -35 -10 -60 -45 -19 -28 -39 -45 -51 -45 -19 0 -20 8 -23 93 l-3 92 -37 3 c-33 3 -38 0 -38 -17z"/> <path d="M1780 811 c0 -12 7 -21 15 -21 13 0 15 -24 15 -155 l0 -155 25 0 c25 0 25 1 25 79 0 69 3 81 25 105 26 28 77 36 92 14 4 -7 10 -53 13 -103 l5 -90 38 -3 c32 -3 37 0 37 17 0 12 -7 21 -15 21 -12 0 -15 14 -15 69 0 37 -5 82 -11 99 -19 55 -103 67 -145 20 -19 -20 -19 -19 -24 48 l-5 69 -37 3 c-33 3 -38 0 -38 -17z"/> <path d="M2360 811 c0 -12 7 -21 15 -21 12 0 15 -26 17 -152 l3 -153 38 -3 c32 -3 37 0 37 17 0 12 -7 21 -15 21 -12 0 -15 26 -17 153 l-3 152 -37 3 c-33 3 -38 0 -38 -17z"/> <path d="M2710 805 c0 -18 5 -25 20 -25 15 0 20 7 20 25 0 18 -5 25 -20 25 -15 0 -20 -7 -20 -25z"/> <path d="M2528 765 c4 -30 1 -35 -17 -35 -14 0 -21 -6 -21 -20 0 -13 7 -20 20 -20 18 0 20 -7 20 -84 0 -79 2 -86 26 -105 36 -28 84 -28 84 -1 0 13 -7 20 -19 20 -33 0 -51 38 -51 107 l0 63 30 0 c23 0 30 4 30 20 0 16 -7 20 -31 20 -30 0 -31 2 -27 35 4 32 2 35 -22 35 -24 0 -26 -3 -22 -35z"/> <path d="M2153 726 c-25 -11 -33 -21 -33 -41 0 -20 5 -25 25 -25 15 0 25 6 25 14 0 34 72 30 90 -5 16 -28 4 -39 -43 -39 -83 0 -138 -62 -106 -119 27 -47 99 -52 139 -9 l20 22 0 -22 c0 -18 6 -22 35 -22 28 0 35 4 35 20 0 11 -7 20 -15 20 -12 0 -15 15 -15 79 0 68 -3 84 -23 106 -27 32 -88 42 -134 21z m117 -136 c0 -25 -32 -70 -54 -76 -59 -14 -89 47 -36 73 30 15 90 17 90 3z"/> <path d="M2680 710 c0 -11 7 -20 15 -20 11 0 15 -20 17 -102 l3 -103 38 -3 c32 -3 37 0 37 17 0 12 -7 21 -15 21 -12 0 -15 17 -15 89 0 112 -3 121 -46 121 -27 0 -34 -4 -34 -20z"/> </g> </svg> 